# xmcd
#
# Track frame offsets:
#	180
#	18201
#	43107
#	54797
#	79247
#	103870
#	124314
#	149413
#	172563
#	192711
#	213926
#	233190
#	253198
#	281213
#
# Disc length: 4212 seconds
#
# Revision: 1
# Processed by: cddbd v1.5.1PL0 Copyright (c) Steve Scherf et al.
# Submitted via: audiograbber 1.83.01
#
DISCID=ca10720e
DTITLE=Scott Goudie and Neil Bishop - The Gig
DYEAR=1900
DGENRE=Blues
TTITLE0=Otis Spann - No More Doggin'
TTITLE1=B.B. King - The Thrill is Gone
TTITLE2=Taj Mahal - Move Up to the Country
TTITLE3=Ry Cooder - The Very Thing
TTITLE4=John Martyn - Head and Heart
TTITLE5=Blind Willie McTell - Blue Sky's Fallin'
TTITLE6=Scott Goudie and Neil Bishop - Renata
TTITLE7=Elmore James - Can't Hold Out
TTITLE8=Preston Foster - Mojo
TTITLE9=Albert King - Help Me
TTITLE10=Charles Calhoun and Willie Turner - Flip Flop Fly
TTITLE11=Percy Mayfeild - Danger Zone
TTITLE12=Cale - Sensative Kind
TTITLE13=Robert Zimmerman - All Along the Watchtower
EXTD=
EXTT0=
EXTT1=
EXTT2=
EXTT3=
EXTT4=
EXTT5=
EXTT6=
EXTT7=
EXTT8=
EXTT9=
EXTT10=
EXTT11=
EXTT12=
EXTT13=
PLAYORDER=
